<svg width="125" height="125" viewBox="0 0 125 125" fill="none" xmlns="http://www.w3.org/2000/svg">
<path d="M0 124.937H124.937V0H0V124.937Z" fill="url(#paint0_linear_608_39)"/>
<path d="M90.4241 45.0512C84.6795 36.7323 75.2208 31.7656 65.123 31.7656C48.1764 31.7656 34.3892 45.5529 34.3892 62.4995C34.3892 79.4475 48.1764 93.2358 65.123 93.2358C74.49 93.2358 83.228 89.0434 89.0966 81.7338C89.2718 81.5157 89.353 81.237 89.3226 80.9588C89.2923 80.681 89.1527 80.4265 88.9345 80.2513L82.5517 75.1297C82.0982 74.7657 81.4349 74.8378 81.0705 75.2914C78.3676 78.6532 74.6035 81.1195 70.4722 82.236C69.7755 82.4234 69.058 82.3902 68.3925 82.1382C67.0469 81.6334 66.1773 80.3813 66.1773 78.9482C66.1773 78.366 65.7054 77.8939 65.123 77.8939C64.5407 77.8939 64.0688 78.366 64.0688 78.9482C64.0688 80.3782 63.2009 81.63 61.8544 82.1382C61.1909 82.3908 60.4719 82.4249 59.7747 82.2362C58.9175 82.0045 58.0858 81.7186 57.2817 81.3846C57.8175 81.1767 58.3342 80.8933 58.8119 80.5241C60.9058 78.9058 61.5034 76.3471 60.3717 73.8471C60.1316 73.3165 59.507 73.0814 58.9765 73.3214C58.4462 73.5614 58.2109 74.1861 58.4508 74.7166C59.1694 76.3037 58.8222 77.8511 57.5225 78.8559C56.4521 79.683 54.7002 80.0783 53.2285 79.1247C53.1831 79.092 53.1367 79.0606 53.0914 79.0274C53.0389 78.99 52.9861 78.9539 52.9345 78.9127C51.6167 77.9308 50.426 76.7968 49.3861 75.5395C48.288 73.7762 48.1507 71.8673 49.0145 70.2904C49.8105 68.838 51.3371 67.9707 53.0983 67.9707C53.6805 67.9707 54.1527 67.4987 54.1527 66.9165C54.1527 66.3343 53.6805 65.8622 53.0983 65.8622C50.555 65.8622 48.3371 67.1388 47.1656 69.277C46.8715 69.8138 46.6602 70.381 46.5254 70.9655C45.4878 68.69 44.8582 66.2059 44.7169 63.6168C45.7792 64.2165 47.1084 64.5486 48.5441 64.5486C49.0852 64.5486 49.6414 64.5016 50.2035 64.4046C51.9265 64.1069 53.7857 63.2626 55.1538 61.7384C56.3133 61.4095 57.6055 61.4769 58.5124 61.9334C59.2 62.2796 59.6705 62.8342 59.9108 63.5817C60.0545 64.0287 60.4685 64.3135 60.9143 64.3135C61.0211 64.3135 61.1297 64.2971 61.2371 64.2627C61.7914 64.0845 62.0962 63.4905 61.9181 62.9363C61.5044 61.6494 60.6547 60.6514 59.4608 60.0503C58.611 59.6224 57.6127 59.4097 56.5825 59.4158C56.8298 58.7862 57.0124 58.0936 57.1107 57.3309C57.1849 56.7536 56.7771 56.225 56.1996 56.1507C55.6218 56.0755 55.0936 56.4845 55.0194 57.0618C54.4858 61.21 50.9236 62.1404 49.8446 62.3269C47.6775 62.7012 45.5576 62.092 44.7478 60.9002C45.4185 52.355 51.4075 45.0262 59.7756 42.765C60.4719 42.5763 61.1911 42.6102 61.8578 42.8645C63.2009 43.3714 64.0688 44.623 64.0688 46.053C64.0688 46.6354 64.5407 47.1073 65.123 47.1073C65.7054 47.1073 66.1773 46.6354 66.1773 46.053C66.1773 44.623 67.045 43.3714 68.3915 42.8633C69.055 42.61 69.7741 42.5759 70.4715 42.7654C75.1236 44.0219 79.2015 46.911 81.9542 50.9006C82.1129 51.1308 82.3567 51.2885 82.6319 51.3387C82.9079 51.3895 83.1908 51.3281 83.4211 51.1694L90.1559 46.518C90.6348 46.1869 90.755 45.5303 90.4241 45.0512Z" fill="white"/>
<path d="M83.7616 64.8284C83.1142 64.8284 82.5284 64.5623 82.1061 64.1345C82.1036 64.132 82.1019 64.1288 82.0994 64.1261C82.0983 64.1249 82.0968 64.1241 82.0956 64.1229C81.9326 63.9556 81.7955 63.7638 81.6884 63.554H83.7621C84.3445 63.554 84.8164 63.0819 84.8164 62.4998C84.8164 61.9174 84.3445 61.4455 83.7621 61.4455H81.6895C81.8343 61.162 82.0338 60.9116 82.2765 60.71C82.2809 60.7065 82.2857 60.7043 82.29 60.7007C82.2927 60.6986 82.2944 60.6959 82.2969 60.6938C82.6974 60.3687 83.2067 60.1729 83.7616 60.1729C85.0452 60.1729 86.0893 61.2171 86.0893 62.5006C86.0893 63.7842 85.0452 64.8284 83.7616 64.8284ZM72.6135 75.5324C71.4403 75.5324 70.4863 74.578 70.4863 73.405C70.4863 72.2319 71.4403 71.2775 72.6135 71.2775C73.7865 71.2775 74.7409 72.2319 74.7409 73.405C74.7409 74.578 73.7865 75.5324 72.6135 75.5324ZM71.9622 63.9765C71.1496 63.9765 70.4883 63.3164 70.4864 62.5042C70.4864 62.5025 70.4868 62.5012 70.4868 62.4998C70.4868 62.4984 70.4864 62.4972 70.4864 62.4959C70.4892 61.6843 71.15 61.0246 71.9622 61.0246C72.7759 61.0246 73.4382 61.6869 73.4382 62.5006C73.4382 63.3145 72.7759 63.9765 71.9622 63.9765ZM72.9913 51.1841C72.9913 50.3563 73.6646 49.683 74.4924 49.683C75.32 49.683 75.9933 50.3563 75.9933 51.1841C75.9933 51.6495 75.7803 52.0663 75.4465 52.3419C75.4459 52.3423 75.445 52.3427 75.4445 52.3434C75.444 52.3436 75.4438 52.3437 75.4436 52.344C75.1844 52.5569 74.8532 52.6849 74.4924 52.6849C73.6646 52.6849 72.9913 52.0117 72.9913 51.1841ZM88.1978 62.5006C88.1978 60.0545 86.2079 58.0644 83.7616 58.0644C83.0775 58.0644 82.4316 58.2246 81.8525 58.5024L77.4952 53.1834C77.8778 52.6105 78.1018 51.9231 78.1018 51.1841C78.1018 49.1936 76.4827 47.5745 74.4924 47.5745C72.5022 47.5745 70.8828 49.1936 70.8828 51.1841C70.8828 53.1743 72.5022 54.7935 74.4924 54.7935C74.9785 54.7935 75.4417 54.6956 75.8651 54.5208L80.2213 59.8388C79.8654 60.3107 79.6025 60.8542 79.4576 61.4455H75.3877C74.936 59.9823 73.5716 58.9161 71.9622 58.9161C70.3527 58.9161 68.9883 59.9823 68.5367 61.4455H66.1772V50.0817C66.1772 49.4996 65.7051 49.0275 65.123 49.0275C64.5406 49.0275 64.0685 49.4996 64.0685 50.0817V52.6727C62.4301 51.4751 60.1877 50.7027 57.8901 50.5842C55.8661 48.8364 56.9427 46.9084 56.955 46.8888C57.267 46.3973 57.1213 45.7458 56.6296 45.4339C56.1375 45.1217 55.4864 45.2676 55.1747 45.759C54.4947 46.8308 54.139 48.8573 55.2818 50.7438C52.0064 51.3363 49.6797 53.3765 48.8506 56.4181C48.6976 56.9798 49.0286 57.5594 49.5905 57.7126C49.6833 57.7379 49.7765 57.75 49.8684 57.75C50.332 57.7498 50.7572 57.4416 50.885 56.9727C51.7677 53.7335 54.5778 52.931 56.1739 52.7409C59.3286 52.3651 62.7895 53.6519 64.0685 55.6335V69.0743C62.3739 67.927 60.2641 67.5077 58.2101 68.0011C55.2475 68.7125 53.1004 71.154 52.6071 74.3726C52.5191 74.948 52.9139 75.4862 53.4898 75.5742C53.5436 75.5825 53.5973 75.5865 53.6504 75.5865C54.1622 75.5865 54.6115 75.2133 54.6915 74.6918C55.0577 72.3012 56.5571 70.5666 58.7025 70.0514C60.6957 69.573 62.7661 70.2998 64.0685 71.9065V74.9195C64.0685 75.502 64.5406 75.9739 65.123 75.9739C65.7051 75.9739 66.1772 75.502 66.1772 74.9195V63.554H68.5363C68.9871 65.0179 70.3521 66.085 71.9622 66.085C73.5723 66.085 74.9373 65.0179 75.3883 63.554H79.4569C79.562 63.9824 79.7286 64.3858 79.948 64.7557L74.8047 69.7868C74.1643 69.3975 73.416 69.169 72.6135 69.169C70.2779 69.169 68.3777 71.0694 68.3777 73.405C68.3777 75.7407 70.2779 77.6409 72.6135 77.6409C74.9492 77.6409 76.8494 75.7407 76.8494 73.405C76.8494 72.6356 76.6399 71.9156 76.2798 71.2931L81.4224 66.2631C82.1025 66.6874 82.9025 66.9369 83.7616 66.9369C86.2079 66.9369 88.1978 64.9469 88.1978 62.5006Z" fill="white"/>
<path d="M68.0918 54.9729C68.0918 55.6545 68.6442 56.2068 69.3255 56.2068C70.007 56.2068 70.5594 55.6545 70.5594 54.9729C70.5594 54.2914 70.007 53.7393 69.3255 53.7393C68.6442 53.7393 68.0918 54.2914 68.0918 54.9729Z" fill="white"/>
<path d="M67.5657 57.7854C67.5657 58.0138 67.7507 58.1986 67.9789 58.1986C68.2073 58.1986 68.3924 58.0138 68.3924 57.7854C68.3924 57.557 68.2073 57.3721 67.9789 57.3721C67.7507 57.3721 67.5657 57.557 67.5657 57.7854Z" fill="white"/>
<path d="M84.701 54.2712C84.701 53.2024 83.8346 52.3359 82.7658 52.3359C81.6969 52.3359 80.8306 53.2024 80.8306 54.2712C80.8306 55.34 81.6969 56.2063 82.7658 56.2063C83.8346 56.2063 84.701 55.34 84.701 54.2712Z" fill="white"/>
<path d="M82.362 73.1171C83.5399 73.1171 84.4948 72.1622 84.4948 70.9843C84.4948 69.8065 83.5399 68.8516 82.362 68.8516C81.1842 68.8516 80.2292 69.8065 80.2292 70.9843C80.2292 72.1622 81.1842 73.1171 82.362 73.1171Z" fill="white"/>
<path d="M79.6001 73.6055C79.1955 73.6055 78.8674 73.9336 78.8674 74.3382C78.8674 74.743 79.1955 75.0712 79.6001 75.0712C80.0048 75.0712 80.3329 74.743 80.3329 74.3382C80.3329 73.9336 80.0048 73.6055 79.6001 73.6055Z" fill="white"/>
<path d="M68.3736 66.6152C67.6784 66.6152 67.1147 67.1788 67.1147 67.874C67.1147 68.5694 67.6784 69.1329 68.3736 69.1329C69.0687 69.1329 69.6324 68.5694 69.6324 67.874C69.6324 67.1788 69.0687 66.6152 68.3736 66.6152Z" fill="white"/>
<path d="M73.5404 67.8374C73.5404 67.4743 73.2461 67.1797 72.8828 67.1797C72.5197 67.1797 72.2251 67.4743 72.2251 67.8374C72.2251 68.2005 72.5197 68.495 72.8828 68.495C73.2461 68.495 73.5404 68.2005 73.5404 67.8374Z" fill="white"/>
<path d="M68.3923 80.0683C68.3923 80.5872 68.813 81.0077 69.3317 81.0077C69.8505 81.0077 70.2713 80.5872 70.2713 80.0683C70.2713 79.5494 69.8505 79.1289 69.3317 79.1289C68.813 79.1289 68.3923 79.5494 68.3923 80.0683Z" fill="white"/>
<path d="M72.0874 46.5739C72.0874 45.4392 71.1677 44.5195 70.0331 44.5195C68.8987 44.5195 67.979 45.4392 67.979 46.5739C67.979 47.7084 68.8987 48.6282 70.0331 48.6282C71.1677 48.6282 72.0874 47.7084 72.0874 46.5739Z" fill="white"/>
<path d="M67.5657 57.7854C67.5657 58.0138 67.7507 58.1986 67.9789 58.1986C68.2073 58.1986 68.3924 58.0138 68.3924 57.7854C68.3924 57.557 68.2073 57.3721 67.9789 57.3721C67.7507 57.3721 67.5657 57.557 67.5657 57.7854Z" fill="white"/>
<path d="M49.0145 70.2901C49.8103 68.8378 51.3371 67.9707 53.0981 67.9707C53.6805 67.9707 54.1524 67.4986 54.1524 66.9164C54.1524 66.334 53.6805 65.8621 53.0981 65.8621C50.555 65.8621 48.3371 67.1387 47.1654 69.2767C46.8714 69.8136 46.66 70.381 46.5252 70.9654C45.4876 68.6897 44.8582 66.2057 44.7169 63.6168C45.779 64.2162 47.1082 64.5483 48.5441 64.5483C49.0852 64.5483 49.6414 64.5013 50.2035 64.4043C51.9264 64.1068 53.7855 63.2623 55.1538 61.7384C56.313 61.4092 57.6055 61.4766 58.5124 61.9334C59.2 62.2796 59.6705 62.8341 59.9108 63.5814C60.0544 64.0284 60.4682 64.3132 60.9143 64.3132C61.0209 64.3132 61.1297 64.2968 61.2371 64.2624C61.7914 64.0843 62.0962 63.4903 61.9179 62.9362C61.5042 61.6493 60.6547 60.6511 59.4608 60.05C58.611 59.6222 57.6125 59.4095 56.5823 59.4157C56.8298 58.7861 57.0124 58.0933 57.1105 57.3308C57.1849 56.7533 56.7769 56.2248 56.1993 56.1505C55.6218 56.0752 55.0936 56.4843 55.0194 57.0616C54.4856 61.21 50.9236 62.1402 49.8447 62.3266C47.6775 62.7009 45.5576 62.0917 44.7475 60.9C45.4182 52.3547 51.4073 45.0261 59.7754 42.765C60.4719 42.576 61.1911 42.6102 61.8576 42.8643C63.2007 43.3711 64.0686 44.623 64.0686 46.053C64.0686 46.6351 64.5407 47.1073 65.123 47.1073C65.7052 47.1073 66.1773 46.6351 66.1773 46.053C66.1773 44.6227 67.045 43.3711 68.3913 42.863C69.055 42.61 69.7741 42.5758 70.4715 42.7652C75.1234 44.0216 79.2015 46.911 81.9542 50.9003C82.1129 51.1305 82.3567 51.2882 82.6318 51.3386C82.9076 51.3892 83.1908 51.3278 83.4211 51.1691L90.1557 46.5177C90.6348 46.1868 90.755 45.5302 90.4241 45.051C84.6795 36.732 75.2208 31.7656 65.123 31.7656C48.1762 31.7656 34.3892 45.5526 34.3892 62.4995C34.3892 65.1015 34.7153 67.6284 35.3268 70.0432C39.1973 72.1552 43.7517 73.4843 48.657 73.9159C48.2979 72.6539 48.4113 71.3912 49.0145 70.2901Z" fill="white"/>
<path d="M69.3255 56.2068C70.007 56.2068 70.5594 55.6545 70.5594 54.973C70.5594 54.2917 70.007 53.7393 69.3255 53.7393C68.6442 53.7393 68.0918 54.2917 68.0918 54.973C68.0918 55.6545 68.6442 56.2068 69.3255 56.2068Z" fill="white"/>
<path d="M72.0874 46.5739C72.0874 45.4392 71.1677 44.5195 70.0331 44.5195C68.8987 44.5195 67.979 45.4392 67.979 46.5739C67.979 47.7084 68.8987 48.6282 70.0331 48.6282C71.1677 48.6282 72.0874 47.7084 72.0874 46.5739Z" fill="white"/>
<path d="M80.8306 54.2712C80.8306 55.34 81.6969 56.2063 82.7658 56.2063C83.8346 56.2063 84.701 55.34 84.701 54.2712C84.701 53.2024 83.8346 52.3359 82.7658 52.3359C81.6969 52.3359 80.8306 53.2024 80.8306 54.2712Z" fill="white"/>
<path d="M69.5374 70.5013C70.5152 70.0901 71.4674 69.6479 72.3952 69.1797C71.2711 69.2372 70.2631 69.7325 69.5374 70.5013Z" fill="white"/>
<path d="M71.9624 63.9767C71.1498 63.9767 70.4886 63.3163 70.4867 62.504C70.4867 62.5026 70.4871 62.5011 70.4871 62.4996C70.4871 62.4984 70.4867 62.4971 70.4867 62.4959C70.4894 61.6843 71.1502 61.0248 71.9624 61.0248C72.7761 61.0248 73.4384 61.6869 73.4384 62.5007C73.4384 63.3146 72.7761 63.9767 71.9624 63.9767ZM75.4468 52.3418C75.4461 52.3424 75.4453 52.3427 75.4447 52.3433C75.4442 52.3435 75.4441 52.3439 75.4439 52.3441C75.1847 52.5569 74.8534 52.6851 74.4927 52.6851C73.6648 52.6851 72.9916 52.0116 72.9916 51.1841C72.9916 50.3565 73.6648 49.6829 74.4927 49.6829C75.3203 49.6829 75.9935 50.3565 75.9935 51.1841C75.9935 51.6496 75.7805 52.0663 75.4468 52.3418ZM81.8527 58.5026L77.4954 53.1833C77.8781 52.6104 78.102 51.9231 78.102 51.1841C78.102 49.1938 76.4829 47.5744 74.4927 47.5744C72.5024 47.5744 70.8831 49.1938 70.8831 51.1841C70.8831 53.1745 72.5024 54.7936 74.4927 54.7936C74.9787 54.7936 75.4417 54.6958 75.8653 54.5207L80.2215 59.8387C79.8656 60.3106 79.6027 60.8544 79.4578 61.4454H75.3879C74.9363 59.9825 73.5719 58.9162 71.9624 58.9162C70.353 58.9162 68.9886 59.9825 68.5369 61.4454H66.1773V50.0819C66.1773 49.4996 65.7054 49.0277 65.123 49.0277C64.5409 49.0277 64.0688 49.4996 64.0688 50.0819V52.6729C62.4304 51.4752 60.188 50.7029 57.8904 50.5842C55.8664 48.8364 56.9429 46.9084 56.9552 46.889C57.2672 46.3972 57.1215 45.7459 56.6299 45.4339C56.1377 45.1216 55.4866 45.2677 55.1749 45.7592C54.4949 46.8308 54.1392 48.8573 55.282 50.744C52.0066 51.3365 49.6799 53.3765 48.8508 56.4182C48.6978 56.98 49.0289 57.5593 49.5907 57.7126C49.6835 57.7379 49.7767 57.75 49.8686 57.75C50.3323 57.75 50.7574 57.4417 50.8851 56.9728C51.768 53.7336 54.578 52.931 56.1742 52.7407C59.3288 52.3652 62.7897 53.6521 64.0688 55.6336V69.0745C62.3742 67.927 60.2643 67.5076 58.2104 68.0011C55.3426 68.6897 53.244 71.0014 52.6647 74.0677C53.385 74.0597 54.1106 74.0335 54.8405 73.9876C55.3717 71.964 56.7749 70.5144 58.7028 70.0514C60.6959 69.5729 62.7661 70.3 64.0688 71.9064V72.4064C64.7589 72.213 65.4494 72.0042 66.1393 71.7759C66.1522 71.7717 66.1646 71.7671 66.1773 71.7629V63.5539H68.5363C68.9873 65.0181 70.3523 66.0852 71.9624 66.0852C73.5725 66.0852 74.9376 65.0181 75.3886 63.5539H79.4572C79.5348 63.8706 79.6464 64.1734 79.7879 64.4591C80.9863 63.504 82.1095 62.4961 83.1543 61.4454H81.6897C81.8346 61.1622 82.034 60.9115 82.2767 60.7101C82.2811 60.7065 82.286 60.7042 82.2902 60.7006C82.2929 60.6986 82.2946 60.696 82.2971 60.6937C82.6976 60.3686 83.207 60.1729 83.7618 60.1729C83.9479 60.1729 84.1282 60.1974 84.3017 60.2389C84.807 59.6833 85.2902 59.117 85.7514 58.5413C85.1521 58.2388 84.4776 58.0644 83.7618 58.0644C83.0778 58.0644 82.4319 58.2246 81.8527 58.5026Z" fill="white"/>
<path d="M69.6324 67.874C69.6324 67.1789 69.0687 66.6152 68.3736 66.6152C67.6782 66.6152 67.1147 67.1789 67.1147 67.874C67.1147 68.5692 67.6782 69.1329 68.3736 69.1329C69.0687 69.1329 69.6324 68.5692 69.6324 67.874Z" fill="white"/>
<path d="M58.9764 73.3212C58.8384 73.3839 58.7214 73.4733 58.6265 73.5796C59.0579 73.5142 59.4903 73.4429 59.9232 73.3641C59.6416 73.2072 59.293 73.178 58.9764 73.3212Z" fill="white"/>
<path d="M72.8828 67.1797C72.5197 67.1797 72.2251 67.474 72.2251 67.8373C72.2251 68.2004 72.5197 68.495 72.8828 68.495C73.2458 68.495 73.5404 68.2004 73.5404 67.8373C73.5404 67.474 73.2458 67.1797 72.8828 67.1797Z" fill="white"/>
<defs>
<linearGradient id="paint0_linear_608_39" x1="1.87407" y1="-7.22108e-06" x2="152.221" y2="155.969" gradientUnits="userSpaceOnUse">
<stop stop-color="#00D7FF"/>
<stop offset="1" stop-color="#0060F0"/>
</linearGradient>
</defs>
</svg>
